<?xml version="1.0" encoding="UTF-8" standalone="no"?><!DOCTYPE svg PUBLIC "-//W3C//DTD SVG 1.1//EN" "http://www.w3.org/Graphics/SVG/1.1/DTD/svg11.dtd"><svg width="100%" height="100%" viewBox="0 0 6917 3859" version="1.1" xmlns="http://www.w3.org/2000/svg" xmlns:xlink="http://www.w3.org/1999/xlink" xml:space="preserve" xmlns:serif="http://www.serif.com/" style="fill-rule:evenodd;clip-rule:evenodd;stroke-linejoin:round;stroke-miterlimit:2;"><g id="svgg"><path id="path0" d="M365.732,379.023c-0.018,1.227 0,697.422 0.019,1547.08c0.037,1234.64 -1.098,1545.25 -5.58,1546.85c-3.088,1.097 -4.446,3.292 -3.014,4.855c1.432,1.562 1395.68,2.864 3098.32,2.864l3095.71,0.019l-0.056,-1546.35c-0.037,-1032.31 1.451,-1546.35 4.446,-1546.35c2.474,0 4.501,-2.009 4.501,-4.483c0,-2.976 -1039.1,-4.854 -3097.16,-5.598c-1703.43,-0.614 -3097.16,-0.112 -3097.18,1.116m5998.89,177.415c1.506,3.888 2.734,417.368 2.734,918.83l0,911.761l-5817.83,0l-0,-915.853c-0,-503.732 1.339,-917.193 2.976,-918.849c7.403,-7.384 5809.29,-3.292 5812.12,4.111m1.637,2371.8l-1.154,379.868l-2904.16,1.116c-2320.37,0.912 -2904.89,0 -2907.73,-4.482c-1.953,-3.069 -3.59,-174.514 -3.627,-380.984l-0.056,-375.386l5817.86,0l-1.134,379.868"/></g></svg>