<?xml version="1.0" encoding="UTF-8" standalone="no"?><!DOCTYPE svg PUBLIC "-//W3C//DTD SVG 1.1//EN" "http://www.w3.org/Graphics/SVG/1.1/DTD/svg11.dtd"><svg width="100%" height="100%" viewBox="0 0 6934 4192" version="1.1" xmlns="http://www.w3.org/2000/svg" xmlns:xlink="http://www.w3.org/1999/xlink" xml:space="preserve" xmlns:serif="http://www.serif.com/" style="fill-rule:evenodd;clip-rule:evenodd;stroke-linejoin:round;stroke-miterlimit:2;"><g id="svgg"><path id="path0" d="M3348.32,459.729c-107,3.462 -202.393,9.954 -257.713,17.568c-18.217,2.518 -50.146,6.846 -70.94,9.639c-20.814,2.794 -49.536,7.004 -63.838,9.384c-14.322,2.361 -39.857,6.59 -56.756,9.384c-16.899,2.813 -41.372,7.259 -54.376,9.915c-13.023,2.656 -32.755,6.138 -43.87,7.751c-11.115,1.594 -21.345,4.761 -22.742,7.004c-1.377,2.262 -8.262,4.17 -15.246,4.249c-7.004,0.079 -27.621,4.269 -45.838,9.325c-18.197,5.036 -38.519,9.226 -45.169,9.305c-6.629,0.079 -14.066,1.928 -16.544,4.112c-2.479,2.183 -17.253,6.787 -32.874,10.249c-15.6,3.463 -30.492,7.692 -33.089,9.424c-2.597,1.731 -17.509,5.98 -33.11,9.423c-15.6,3.462 -30.394,8.085 -32.873,10.249c-2.459,2.184 -9.246,3.974 -15.089,3.974c-5.823,0 -11.902,2.125 -13.515,4.741c-1.613,2.597 -7.987,4.722 -14.184,4.722c-6.197,-0 -12.591,2.125 -14.184,4.721c-1.613,2.617 -7.987,4.741 -14.184,4.741c-6.197,0 -12.591,2.125 -14.204,4.722c-1.593,2.597 -7.987,4.721 -14.184,4.721c-6.197,0 -12.571,2.145 -14.184,4.742c-1.613,2.596 -7.987,4.721 -14.184,4.721c-6.197,0 -12.571,2.125 -14.184,4.741c-1.613,2.597 -7.987,4.722 -14.184,4.722c-6.197,-0 -12.591,2.124 -14.184,4.721c-1.614,2.617 -6.099,4.741 -9.975,4.741c-3.875,0 -15.856,4.25 -26.617,9.463c-10.761,5.193 -22.309,9.443 -25.633,9.443c-3.345,-0 -13.653,4.269 -22.9,9.462c-9.265,5.214 -20.617,9.463 -25.22,9.463c-4.604,-0 -10.387,1.869 -12.866,4.151c-2.459,2.282 -12.532,6.728 -22.388,9.876c-9.836,3.147 -34.073,14.046 -53.844,24.217c-19.791,10.171 -38.421,18.492 -41.411,18.492c-6.807,0 -211.522,102.515 -215.181,107.748c-1.476,2.125 -14.932,9.758 -29.903,16.978c-14.971,7.22 -29.863,15.718 -33.109,18.846c-3.227,3.148 -17.902,11.548 -32.598,18.67c-14.676,7.121 -29.313,16.112 -32.499,19.948c-3.187,3.836 -8.322,6.984 -11.411,6.984c-3.088,-0 -9.757,3.718 -14.794,8.282c-5.036,4.544 -15.01,11.292 -22.171,14.971c-7.161,3.699 -13.004,8.479 -13.004,10.643c0,2.164 -2.282,3.935 -5.055,3.935c-2.794,-0 -14.342,6.374 -25.673,14.184c-11.352,7.81 -22.368,14.184 -24.513,14.203c-2.124,0 -10.249,5.509 -18.059,12.217c-7.81,6.728 -20.047,15.699 -27.188,19.929c-7.161,4.249 -13.004,9.384 -13.004,11.43c0,2.026 -2.656,3.698 -5.921,3.698c-3.246,0.02 -12.296,5.508 -20.086,12.237c-7.81,6.728 -20.047,15.698 -27.208,19.928c-7.141,4.249 -13.003,9.384 -13.003,11.41c-0,2.046 -2.656,3.718 -5.902,3.738c-3.246,0.02 -12.296,5.941 -20.106,13.161c-7.79,7.22 -21.62,18.276 -30.729,24.572c-9.108,6.295 -20.007,15.285 -24.197,19.948c-4.21,4.682 -9.542,8.518 -11.824,8.518c-2.301,0.02 -10.564,5.882 -18.374,13.043c-7.79,7.141 -25.889,22.545 -40.192,34.211c-14.302,11.666 -31.319,26.558 -37.83,33.09c-6.512,6.551 -19.87,17.902 -29.726,25.24c-9.856,7.358 -34.486,29.686 -54.769,49.654c-20.283,19.948 -52.664,51.228 -71.943,69.524c-44.166,41.844 -126.319,127.833 -160.412,167.907c-14.302,16.82 -27.129,31.634 -28.486,32.932c-3.286,3.108 -48.513,56.461 -58.133,68.579c-4.132,5.194 -18.355,23.273 -31.595,40.192c-13.259,16.899 -26.657,33.975 -29.785,37.929c-17.666,22.309 -36.866,48.415 -58.9,80.068c-53.943,77.55 -100.488,146.681 -100.488,149.258c-0,1.495 -10.525,18.335 -23.411,37.417c-23.785,35.254 -34.211,52.625 -56.972,94.922c-7.004,13.003 -17.686,32.165 -23.765,42.572c-15.325,26.263 -110.069,214.512 -117.958,234.381c-3.561,8.932 -14.637,33.759 -24.591,55.163c-9.974,21.404 -18.119,40.703 -18.119,42.867c0,2.164 -4.269,12.748 -9.462,23.509c-5.194,10.761 -9.463,21.836 -9.463,24.591c-0,2.773 -1.948,8.715 -4.348,13.239c-2.4,4.525 -9.03,20.972 -14.735,36.592c-5.705,15.6 -13.121,34.762 -16.485,42.552c-6.906,16.014 -57.032,170.838 -63.563,196.256c-4.938,19.299 -22.112,81.111 -28.25,101.669c-2.322,7.81 -8.794,35.47 -14.361,61.477c-5.588,26.027 -13.181,60.061 -16.88,75.681c-7.062,29.785 -35.175,186.734 -38.519,215.162c-1.082,9.108 -5.194,42.099 -9.168,73.3c-12.728,100.292 -27.896,384.348 -20.676,387.318c1.299,0.531 566.832,1.633 1256.74,2.44l1254.38,1.475l0,-87.642c0,-48.199 1.358,-91.203 3.03,-95.551c2.833,-7.358 -30.06,-7.81 -478.816,-6.531c-302.095,0.846 -481.806,-0.315 -481.747,-3.128c1.574,-77.314 61.458,-344.963 87.485,-391.017c2.538,-4.524 4.643,-12.374 4.643,-17.469c-0,-5.076 2.124,-10.545 4.721,-12.158c2.597,-1.613 4.721,-7.987 4.721,-14.184c0,-6.197 2.125,-12.59 4.742,-14.184c2.596,-1.613 4.721,-6.138 4.721,-10.053c0,-7.279 19.083,-48.788 74.737,-162.556c28.014,-57.267 150.162,-250.1 170.76,-269.576c4.131,-3.895 19.141,-20.932 33.385,-37.831c14.223,-16.899 29.135,-33.916 33.128,-37.811c3.994,-3.915 21.09,-23.037 37.969,-42.493c37.693,-43.457 45.287,-51.13 66.219,-66.966c9.069,-6.866 26.164,-21.759 37.968,-33.09c11.804,-11.332 29.057,-26.342 38.362,-33.365c9.286,-7.004 25.83,-21.325 36.749,-31.811c10.918,-10.486 26.106,-22.761 33.758,-27.286c7.653,-4.525 13.909,-9.896 13.909,-11.922c-0,-2.046 2.793,-3.718 6.197,-3.718c3.423,-0 10.328,-3.718 15.364,-8.282c5.056,-4.545 15.03,-11.292 22.191,-14.971c7.141,-3.699 13.004,-8.479 13.004,-10.643c-0,-2.164 2.774,-3.935 6.197,-3.935c3.403,0 10.328,-3.718 15.364,-8.282c5.036,-4.544 15.03,-11.292 22.171,-14.971c7.161,-3.698 13.004,-8.479 13.004,-10.643c0,-2.164 2.794,-3.935 6.197,-3.935c3.423,0 10.328,-3.757 15.384,-8.36c10.742,-9.798 219.194,-114.634 227.89,-114.614c3.246,0.02 5.902,-2.105 5.902,-4.702c-0,-2.616 3.639,-4.741 8.085,-4.741c8.577,-0 125.729,-36.218 139.638,-43.182c4.505,-2.262 12.374,-4.111 17.449,-4.111c5.076,-0 10.565,-2.125 12.158,-4.722c1.613,-2.597 8.007,-4.721 14.204,-4.721c6.197,-0 12.394,-1.85 13.79,-4.112c1.397,-2.262 12.689,-5.587 25.103,-7.397c36.454,-5.331 67.93,-10.741 98.246,-16.879c56.244,-11.391 81.662,-14.538 160.786,-19.988c130.804,-8.971 342.857,-5.98 406.695,5.764c13.004,2.381 36.414,6.532 52.015,9.227c120.043,20.676 208.925,42.021 239.929,57.622c4.525,2.262 12.374,4.131 17.47,4.131c5.075,-0 10.544,2.124 12.157,4.721c1.614,2.617 7.988,4.741 14.184,4.741c6.197,0 12.591,2.125 14.185,4.722c1.613,2.597 8.006,4.721 14.203,4.721c6.178,0 12.571,2.145 14.184,4.741c1.594,2.597 6.492,4.722 10.879,4.722c4.387,-0 31.398,11.45 60.022,25.457c46.329,22.663 105.82,50.795 139.539,66.002c16.604,7.495 223.09,144.87 231.726,154.175c3.895,4.21 20.912,19.28 37.811,33.523c16.919,14.223 33.936,29.096 37.831,33.05c3.915,3.954 18.787,16.722 33.07,28.368c32.598,26.617 48.847,42.848 75.701,75.622c11.685,14.283 28.722,33.424 37.83,42.533c9.109,9.089 22.211,23.981 29.116,33.09c6.925,9.108 19.948,24.256 28.958,33.66c9.03,9.403 25.555,30.689 36.749,47.293c11.194,16.604 21.562,31.24 23.076,32.539c1.495,1.318 5.745,8.223 9.424,15.384c3.678,7.141 8.479,13.004 10.623,13.004c2.164,-0 3.934,2.793 3.934,6.197c0,3.403 3.738,10.328 8.283,15.364c4.544,5.056 11.292,15.03 14.99,22.171c3.679,7.161 8.479,13.004 10.643,13.004c2.145,0 3.915,2.794 3.915,6.217c0,3.403 3.758,10.328 8.361,15.364c14.637,16.053 113.512,220.198 129.27,266.901c8.341,24.709 16.958,46.939 19.161,49.418c2.204,2.459 3.994,9.266 3.994,15.089c-0,5.823 2.144,11.902 4.741,13.515c2.597,1.613 4.722,7.987 4.722,14.184c-0,6.197 2.124,12.591 4.741,14.204c2.596,1.593 4.721,7.987 4.721,14.184c0,6.197 2.125,12.571 4.722,14.184c2.616,1.613 4.741,7.987 4.741,14.184c-0,6.197 1.849,12.414 4.092,13.791c2.262,1.396 5.41,11.626 7.023,22.741c1.593,11.116 4.879,29.785 7.279,41.49c2.4,11.706 6.885,34.054 9.974,49.654c3.089,15.621 7.515,37.949 9.856,49.655c7.83,39.148 18.315,120.004 15.876,122.443c-1.318,1.338 -217.522,2.518 -480.449,2.656l-478.049,0.236l0.492,92.206l0.492,92.226l1249.73,0.02c687.348,0.02 1252.23,1.652 1255.3,3.62c3.069,1.987 6.296,1.967 7.161,-0.02c5.391,-12.453 -9.069,-286.888 -19.515,-370.124c-2.44,-19.515 -6.689,-53.569 -9.443,-75.661c-2.754,-22.112 -6.964,-51.917 -9.384,-66.219c-2.4,-14.302 -6.669,-39.837 -9.463,-56.736c-2.793,-16.919 -7.259,-41.392 -9.915,-54.395c-2.656,-13.004 -6.138,-32.736 -7.731,-43.851c-1.613,-11.115 -4.781,-21.345 -7.023,-22.742c-2.263,-1.397 -4.112,-8.007 -4.112,-14.715c0,-6.689 -1.967,-19.87 -4.387,-29.273c-2.42,-9.404 -7.023,-29.863 -10.23,-45.464c-3.187,-15.62 -7.594,-30.414 -9.777,-32.873c-2.184,-2.479 -3.974,-11.096 -3.974,-19.161c-0,-8.066 -1.79,-16.683 -3.974,-19.142c-2.184,-2.479 -6.787,-17.273 -10.25,-32.873c-3.442,-15.601 -7.692,-30.493 -9.423,-33.11c-1.731,-2.596 -5.961,-17.489 -9.423,-33.089c-3.463,-15.62 -8.066,-30.395 -10.25,-32.873c-2.183,-2.479 -3.974,-9.266 -3.974,-15.09c0,-5.823 -2.124,-11.921 -4.721,-13.515c-2.597,-1.613 -4.741,-8.007 -4.741,-14.184c-0,-6.197 -2.125,-12.59 -4.722,-14.204c-2.596,-1.593 -4.721,-7.987 -4.721,-14.184c-0,-6.197 -2.144,-12.571 -4.741,-14.184c-2.597,-1.613 -4.722,-7.987 -4.722,-14.184c0,-6.197 -2.124,-12.59 -4.741,-14.184c-2.597,-1.613 -4.721,-6.098 -4.721,-9.974c-0,-3.875 -4.25,-15.856 -9.463,-26.617c-5.194,-10.761 -9.443,-22.309 -9.443,-25.634c0,-3.344 -4.269,-13.633 -9.462,-22.899c-5.214,-9.266 -9.463,-20.912 -9.463,-25.87c-0,-4.977 -2.125,-10.367 -4.722,-11.961c-2.616,-1.613 -4.741,-6.846 -4.741,-11.626c0,-4.781 -6.374,-20.834 -14.184,-35.667c-7.81,-14.833 -14.243,-29.411 -14.302,-32.401c-0.079,-2.99 -8.577,-22.427 -18.925,-43.221c-10.328,-20.775 -18.788,-40.034 -18.788,-42.789c0,-6.315 -83.747,-173.238 -88.744,-176.858c-2.006,-1.456 -10.859,-17.037 -19.653,-34.585c-8.793,-17.548 -17.784,-31.929 -20.007,-31.929c-2.203,0 -4.013,-4.072 -4.013,-9.049c-0,-4.997 -1.594,-9.778 -3.541,-10.643c-1.948,-0.866 -8.676,-11.686 -14.932,-24.04c-6.256,-12.355 -13.181,-22.467 -15.364,-22.467c-2.204,0 -3.994,-2.282 -3.994,-5.055c0,-2.794 -5.921,-13.949 -13.141,-24.828c-7.24,-10.879 -16.112,-25.614 -19.732,-32.774c-3.6,-7.161 -8.322,-13.004 -10.486,-13.004c-2.164,-0 -3.934,-2.794 -3.934,-6.197c-0,-3.423 -4.25,-10.781 -9.463,-16.368c-5.193,-5.567 -9.443,-11.449 -9.443,-13.043c0,-2.99 -28.053,-45.326 -32.814,-49.516c-1.475,-1.299 -5.685,-8.223 -9.384,-15.365c-3.679,-7.161 -8.459,-13.003 -10.623,-13.003c-2.164,-0 -3.935,-2.125 -3.935,-4.702c0,-3.974 -18.512,-30.67 -39.385,-56.776c-3.128,-3.915 -10.859,-14.538 -17.194,-23.647c-6.354,-9.108 -12.807,-17.626 -14.361,-18.925c-1.554,-1.298 -7.928,-9.817 -14.184,-18.905c-6.256,-9.109 -14.774,-19.752 -18.905,-23.647c-4.151,-3.915 -12.67,-14.538 -18.926,-23.647c-6.256,-9.108 -12.571,-17.627 -14.026,-18.925c-1.456,-1.298 -12.178,-14.066 -23.824,-28.368c-11.646,-14.302 -26.519,-31.339 -33.05,-37.831c-6.532,-6.512 -17.903,-19.889 -25.241,-29.725c-7.357,-9.857 -29.686,-34.526 -49.654,-54.848c-19.948,-20.322 -51.169,-52.723 -69.366,-72.003c-40.487,-42.847 -126.693,-125.059 -168.065,-160.274c-16.8,-14.302 -33.738,-29.194 -37.653,-33.109c-12.001,-11.981 -44.461,-39.562 -61.242,-52.015c-19.161,-14.223 -66.513,-51.425 -92.049,-72.337c-20.754,-16.958 -55.083,-40.978 -167.002,-116.836c-42.218,-28.605 -78.002,-51.996 -79.537,-51.996c-1.534,0 -11.705,-6.137 -22.604,-13.633c-10.879,-7.475 -27.758,-18.118 -37.496,-23.627c-16.604,-9.423 -28.644,-16.269 -66.18,-37.752c-8.459,-4.82 -24.945,-14.322 -36.65,-21.089c-37.241,-21.542 -194.741,-98.659 -253.012,-123.88c-10.387,-4.505 -32.066,-14.321 -48.159,-21.797c-16.092,-7.476 -31.555,-13.594 -34.348,-13.594c-2.814,-0 -8.794,-1.967 -13.319,-4.348c-4.505,-2.4 -20.971,-9.029 -36.572,-14.735c-15.62,-5.705 -34.761,-13.161 -42.571,-16.564c-23.018,-10.053 -195.174,-66.12 -238.808,-77.786c-22.113,-5.902 -52.979,-14.637 -68.58,-19.398c-15.6,-4.76 -48.592,-13.082 -73.301,-18.492c-24.709,-5.39 -63.011,-13.85 -85.124,-18.788c-68.697,-15.305 -178.353,-33.817 -252.992,-42.709c-23.41,-2.794 -55.575,-7.122 -71.491,-9.62c-15.895,-2.499 -40.014,-4.564 -53.569,-4.564c-13.574,-0 -44.185,-2.046 -68.028,-4.584c-58.212,-6.138 -214.335,-7.968 -338.943,-3.954m186.282,192.911c28.899,2.577 90.849,6.866 137.67,9.541c112.096,6.433 198.322,13.594 224.624,18.67c47.805,9.226 79.045,15.404 96.948,19.141c10.407,2.184 30.61,6.256 44.932,9.05c224.231,43.851 212.781,40.88 403.686,104.679c115.577,38.618 204.597,71.274 237.096,86.993c28.604,13.85 79.675,38.441 113.493,54.631c192.163,92.089 206.092,99.958 371.225,209.85c142.51,94.823 199.698,136.116 226.985,163.894c3.914,3.974 20.931,18.886 37.83,33.109c16.919,14.224 33.936,29.057 37.851,32.972c3.895,3.895 20.932,18.728 37.831,32.971c16.899,14.224 33.935,29.155 37.83,33.188c3.896,4.014 18.749,16.84 33.011,28.506c31.477,25.732 87.721,81.583 104.797,104.069c6.886,9.03 21.778,26.086 33.11,37.87c11.331,11.784 30.178,33.07 41.863,47.294c11.706,14.223 28.722,33.306 37.851,42.395c9.108,9.108 22.23,24 29.174,33.109c6.925,9.108 25.673,30.375 41.648,47.293c15.994,16.899 32.578,36.592 36.886,43.733c4.308,7.161 9.502,13.004 11.548,13.004c2.026,-0 3.699,2.793 3.699,6.216c-0,3.404 3.737,10.328 8.282,15.365c4.544,5.036 11.292,15.01 14.99,22.171c3.679,7.161 8.479,13.003 10.643,13.003c2.145,0 3.915,2.794 3.915,6.197c0,3.423 3.738,10.329 8.283,15.385c4.544,5.036 11.292,15.01 14.99,22.171c3.679,7.141 8.479,13.003 10.643,13.003c2.164,0 3.915,2.794 3.915,6.197c0,3.404 3.738,10.329 8.282,15.365c4.564,5.036 11.293,15.03 14.991,22.171c3.698,7.161 8.479,13.004 10.643,13.004c2.164,-0 3.935,2.793 3.935,6.216c-0,3.404 3.718,10.329 8.262,15.365c4.564,5.036 11.292,15.01 14.991,22.171c3.698,7.141 8.479,13.004 10.643,13.004c2.164,-0 3.934,2.793 3.934,6.197c0,3.423 3.718,10.328 8.263,15.364c4.564,5.056 11.292,15.03 14.991,22.171c3.698,7.161 8.478,13.024 10.642,13.024c2.165,-0 3.935,2.774 3.935,6.197c0,3.403 3.758,10.328 8.361,15.364c11.233,12.296 190.275,371.127 190.255,381.298c0,4.407 2.125,9.305 4.722,10.918c2.597,1.614 4.741,7.988 4.741,14.185c0,6.196 2.125,12.59 4.722,14.203c2.596,1.594 4.721,7.987 4.721,14.184c0,6.197 2.144,12.571 4.741,14.184c2.597,1.614 4.722,7.988 4.722,14.185c-0,6.196 2.124,12.57 4.741,14.184c2.597,1.613 4.721,7.987 4.721,14.184c0,6.197 2.125,12.59 4.722,14.184c2.616,1.613 4.741,7.692 4.741,13.535c-0,5.823 1.849,12.61 4.131,15.089c2.282,2.459 11.056,25.771 19.516,51.778c8.439,26.008 17.213,49.32 19.495,51.779c2.282,2.479 4.151,9.266 4.151,15.089c0,5.843 2.125,11.922 4.722,13.535c2.597,1.594 4.721,7.987 4.721,14.184c0,6.197 2.125,12.571 4.741,14.184c2.597,1.613 4.722,7.692 4.722,13.515c-0,5.824 1.79,12.63 3.974,15.09c2.183,2.478 6.61,17.272 9.836,32.873c3.226,15.6 7.653,36.886 9.836,47.293c2.184,10.407 6.433,31.673 9.463,47.293c3.01,15.601 7.279,36.887 9.463,47.274c2.164,10.407 6.433,31.693 9.443,47.294c3.029,15.6 7.279,36.886 9.462,47.293c2.184,10.407 6.433,31.693 9.463,47.293c3.029,15.601 7.279,36.887 9.462,47.294c14.067,67.222 14.834,74.992 23.096,231.725c1.791,33.798 2.322,63.366 1.2,65.668c-2.833,5.863 -1150.76,-1.298 -1156.9,-7.2c-2.617,-2.518 -6.236,-23.076 -8.046,-45.7c-1.83,-22.643 -5.351,-50.736 -7.83,-62.422c-2.499,-11.705 -7.063,-34.053 -10.151,-49.654c-3.069,-15.62 -7.299,-36.886 -9.364,-47.293c-2.086,-10.407 -7.24,-38.067 -11.45,-61.478c-4.21,-23.41 -9.817,-46.821 -12.433,-52.034c-2.617,-5.194 -21.68,-60.494 -42.356,-122.896c-20.676,-62.402 -39.778,-114.181 -42.454,-115.066c-2.695,-0.905 -4.898,-5.705 -4.898,-10.702c-0,-4.977 -2.125,-9.069 -4.722,-9.069c-2.596,-0 -4.721,-4.25 -4.721,-9.443c-0,-5.214 -2.144,-9.463 -4.741,-9.463c-2.597,0 -4.722,-3.718 -4.702,-8.282c0.02,-10.702 -85.124,-180.872 -90.515,-180.872c-2.242,0 -4.091,-2.793 -4.091,-6.216c-0,-3.404 -3.719,-10.328 -8.283,-15.365c-4.544,-5.036 -11.292,-15.01 -14.971,-22.171c-3.698,-7.161 -8.479,-13.004 -10.643,-13.004c-2.164,0 -3.934,-2.793 -3.934,-6.197c-0,-3.423 -3.718,-10.328 -8.282,-15.384c-4.545,-5.036 -11.293,-15.01 -14.971,-22.171c-3.699,-7.141 -8.479,-13.004 -10.643,-13.004c-2.164,0 -3.935,-2.793 -3.935,-6.197c0,-3.403 -3.718,-10.328 -8.282,-15.364c-4.545,-5.036 -11.292,-15.03 -14.971,-22.171c-3.699,-7.161 -8.479,-13.004 -10.643,-13.004c-2.164,0 -3.935,-2.99 -3.935,-6.63c0,-3.619 -10.112,-16.997 -22.466,-29.706c-12.355,-12.708 -28.545,-31.161 -35.982,-41.017c-7.416,-9.876 -20.184,-24.709 -28.368,-32.992c-8.164,-8.302 -24.433,-26.755 -36.119,-41.037c-27.66,-33.759 -60.12,-66.238 -104.069,-104.108c-19.496,-16.801 -38.657,-33.818 -42.552,-37.812c-3.895,-3.993 -20.932,-18.905 -37.831,-33.148c-16.899,-14.224 -33.916,-29.254 -37.831,-33.365c-3.895,-4.131 -46.467,-33.66 -94.587,-65.648c-48.119,-31.969 -91.871,-62.107 -97.242,-66.966c-17.096,-15.503 -252.697,-131.395 -297.276,-146.228c-23.607,-7.869 -46.604,-16.348 -51.129,-18.847c-4.505,-2.518 -12.06,-4.564 -16.781,-4.564c-4.722,0 -10.604,-1.869 -13.082,-4.151c-9.64,-8.892 -111.84,-40.211 -174.734,-53.549c-36.414,-7.712 -85.36,-18.237 -108.771,-23.411c-81.072,-17.863 -282.56,-35.116 -359.402,-30.768c-130.096,7.358 -232.965,16.564 -245.91,22.014c-5.194,2.203 -17.961,5.41 -28.368,7.141c-10.407,1.731 -27.424,4.918 -37.831,7.063c-10.407,2.144 -27.424,5.311 -37.831,7.042c-10.407,1.751 -23.174,4.978 -28.387,7.201c-5.194,2.203 -15.837,5.016 -23.627,6.236c-45.031,7.043 -70.822,13.043 -83.787,19.515c-8.046,4.014 -18.433,7.299 -23.076,7.299c-4.643,-0 -9.758,2.125 -11.371,4.721c-1.613,2.597 -7.692,4.722 -13.515,4.722c-5.843,-0 -12.63,1.869 -15.089,4.151c-2.479,2.282 -19.397,8.931 -37.595,14.774c-18.217,5.843 -35.135,12.492 -37.614,14.774c-2.459,2.282 -9.246,4.132 -15.089,4.132c-5.823,-0 -11.902,2.144 -13.515,4.741c-1.614,2.597 -7.988,4.721 -14.185,4.721c-6.196,0 -12.57,2.125 -14.184,4.741c-1.613,2.597 -6.531,4.702 -10.918,4.683c-10.407,-0.059 -86.029,38.007 -86.029,43.28c-0,2.223 -4.249,4.052 -9.463,4.052c-5.193,0 -9.462,2.125 -9.462,4.722c-0,2.597 -4.25,4.741 -9.443,4.741c-5.214,-0 -9.463,2.125 -9.463,4.721c0,2.597 -4.249,4.722 -9.462,4.722c-5.194,-0 -9.463,2.124 -9.463,4.741c-0,2.597 -4.249,4.721 -9.443,4.721c-5.213,0 -9.463,2.125 -9.463,4.722c0,2.616 -4.269,4.741 -9.462,4.741c-5.194,0 -9.463,2.125 -9.463,4.721c0,2.597 -4.249,4.742 -9.462,4.742c-5.194,-0 -9.443,1.849 -9.443,4.131c-0,2.282 -6.138,5.371 -13.614,6.866c-7.495,1.495 -16.919,6.02 -20.951,10.053c-4.033,4.013 -9.207,7.318 -11.509,7.318c-2.282,-0 -8.302,3.718 -13.338,8.282c-5.036,4.544 -15.011,11.292 -22.171,14.971c-7.161,3.699 -13.004,8.479 -13.004,10.643c-0,2.164 -2.794,3.935 -6.197,3.935c-3.423,-0 -10.328,3.836 -15.384,8.538c-5.036,4.701 -29.372,22.092 -54.081,38.637c-24.709,16.545 -45.641,31.85 -46.506,34.014c-0.866,2.164 -4.269,3.935 -7.574,3.935c-3.305,-0 -12.197,5.843 -19.791,13.003c-7.574,7.161 -25.457,22.565 -39.719,34.27c-14.243,11.706 -33.365,28.723 -42.474,37.851c-9.108,9.108 -28.171,26.145 -42.375,37.85c-35.096,28.88 -68.855,62.501 -99.721,99.289c-14.184,16.899 -28.978,33.916 -32.874,37.831c-3.895,3.914 -18.807,20.912 -33.109,37.791c-14.302,16.879 -32.106,37.103 -39.562,44.933c-13.83,14.499 -50.284,65.864 -50.284,70.822c0,1.514 -21.817,34.899 -48.473,74.205c-26.657,39.287 -54.081,82.331 -60.927,95.65c-45.188,87.681 -108.181,219.371 -108.161,226.079c0.02,4.387 -2.105,9.305 -4.702,10.919c-2.596,1.593 -4.741,7.987 -4.741,14.184c0,6.197 -2.124,12.571 -4.721,14.184c-2.597,1.613 -4.722,7.987 -4.722,14.184c0,6.197 -2.124,12.59 -4.741,14.184c-2.597,1.613 -4.721,7.987 -4.721,14.184c-0,6.197 -2.125,12.591 -4.722,14.204c-2.616,1.593 -4.741,7.987 -4.741,14.184c0,6.197 -2.125,12.571 -4.721,14.184c-2.597,1.613 -4.742,7.987 -4.742,14.184c0,6.197 -2.124,12.571 -4.721,14.184c-2.597,1.613 -4.722,7.987 -4.722,14.184c0,6.197 -2.144,12.591 -4.741,14.204c-2.596,1.593 -4.721,7.672 -4.721,13.515c-0,5.823 -1.849,12.61 -4.112,15.089c-2.242,2.459 -8.754,28.958 -14.459,58.881c-5.705,29.902 -12.197,62.894 -14.44,73.301c-2.223,10.387 -6.531,31.673 -9.581,47.273c-3.029,15.62 -6.472,32.637 -7.652,37.851c-1.181,5.193 -4.053,28.348 -6.374,51.464c-2.341,23.115 -5.981,43.673 -8.106,45.719c-2.124,2.027 -263.261,5.233 -580.307,7.122l-576.472,3.443l3.266,-72.79c4.387,-97.774 10.761,-176.976 16.328,-202.846c2.518,-11.705 7.102,-34.053 10.191,-49.654c3.088,-15.601 7.337,-36.886 9.462,-47.293c2.105,-10.407 6.374,-31.693 9.443,-47.294c3.089,-15.6 7.338,-36.886 9.463,-47.293c2.124,-10.407 6.374,-31.673 9.462,-47.293c3.089,-15.601 7.338,-36.887 9.463,-47.274c2.125,-10.407 6,-30.631 8.617,-44.933c4.957,-27.129 35.43,-123.997 43.496,-138.26c2.538,-4.525 4.623,-12.374 4.623,-17.45c0,-5.095 2.145,-10.564 4.741,-12.177c2.597,-1.594 4.722,-7.988 4.722,-14.184c-0,-6.197 2.124,-12.571 4.741,-14.185c2.597,-1.613 4.721,-7.987 4.721,-14.184c0,-6.197 1.869,-12.433 4.171,-13.849c2.282,-1.417 5.213,-7.378 6.531,-13.279c12.473,-56.442 62.953,-180.833 121.401,-299.184c35.962,-72.829 77.314,-156.871 91.892,-186.793c14.577,-29.903 48.355,-86.58 75.051,-125.926c26.696,-39.326 78.554,-115.951 115.244,-170.228c36.709,-54.297 75.012,-107.355 85.124,-117.919c10.131,-10.564 30.06,-32.913 44.283,-49.654c14.243,-16.742 29.195,-33.641 33.247,-37.555c4.053,-3.896 19.004,-20.893 33.228,-37.753c14.243,-16.879 31.201,-36.06 37.712,-42.63c6.492,-6.591 23.529,-25.752 37.831,-42.592c33.168,-39.051 75.78,-81.603 108.85,-108.692c14.262,-11.686 31.24,-26.578 37.752,-33.129c6.492,-6.532 19.259,-17.489 28.368,-24.355c9.108,-6.866 26.204,-21.758 38.008,-33.09c11.803,-11.331 29.588,-26.735 39.503,-34.23c9.934,-7.496 26.912,-22.388 37.732,-33.11c10.84,-10.702 27.463,-25.299 36.945,-32.401c9.483,-7.121 20.086,-15.777 23.549,-19.259c9.246,-9.227 178.039,-121.5 182.681,-121.5c2.164,0 8.066,-3.737 13.102,-8.282c5.037,-4.564 15.011,-11.292 22.172,-14.99c7.161,-3.699 13.003,-8.479 13.003,-10.643c0,-2.164 2.794,-3.935 6.197,-3.935c3.423,0 10.328,-3.718 15.365,-8.263c5.056,-4.564 15.03,-11.292 22.191,-14.99c7.141,-3.699 13.003,-8.479 13.003,-10.643c0,-2.164 2.774,-3.935 6.197,-3.935c3.404,0 10.328,-3.718 15.365,-8.262c5.036,-4.564 15.03,-11.292 22.171,-14.991c7.161,-3.698 13.004,-8.479 13.004,-10.643c-0,-2.164 3.737,-3.934 8.282,-3.954c4.544,-0.02 84.888,-38.323 178.511,-85.124c93.642,-46.802 173.848,-85.085 178.255,-85.085c4.387,-0 9.305,-2.144 10.918,-4.741c1.613,-2.597 7.987,-4.722 14.184,-4.722c6.197,0 12.571,-2.124 14.184,-4.741c1.614,-2.597 7.988,-4.721 14.184,-4.721c6.197,-0 12.591,-2.125 14.185,-4.722c1.613,-2.616 8.006,-4.741 14.203,-4.741c6.197,0 12.571,-2.125 14.184,-4.721c1.594,-2.597 7.988,-4.742 14.184,-4.742c6.197,0 12.571,-2.124 14.185,-4.721c1.613,-2.597 7.987,-4.721 14.184,-4.721c6.197,-0 12.59,-2.145 14.184,-4.742c1.613,-2.596 8.007,-4.721 14.203,-4.721c6.178,-0 12.571,-2.125 14.185,-4.741c1.593,-2.597 7.987,-4.722 14.184,-4.722c6.197,0 12.571,-2.124 14.184,-4.721c1.613,-2.617 7.987,-4.741 14.184,-4.741c6.197,-0 12.59,-2.125 14.184,-4.722c1.613,-2.597 7.987,-4.721 14.184,-4.721c6.197,-0 12.59,-2.145 14.204,-4.741c1.593,-2.597 7.987,-4.722 14.184,-4.722c6.197,0 12.571,-2.125 14.184,-4.741c1.613,-2.597 7.987,-4.721 14.184,-4.721c6.197,-0 12.571,-2.125 14.184,-4.722c1.613,-2.616 7.987,-4.741 14.184,-4.741c6.197,-0 12.591,-2.125 14.204,-4.722c1.593,-2.596 10.112,-4.741 18.905,-4.741c8.794,0 17.312,-2.124 18.926,-4.721c1.593,-2.597 12.236,-4.722 23.646,-4.722c11.391,0 22.034,-2.124 23.627,-4.741c1.613,-2.597 12.256,-4.721 23.647,-4.721c11.41,-0 22.053,-2.125 23.647,-4.722c1.613,-2.616 12.256,-4.741 23.646,-4.741c11.411,0 21.876,-1.849 23.273,-4.131c1.417,-2.282 13.771,-5.39 27.483,-6.925c13.692,-1.534 34.487,-4.8 46.192,-7.259c11.705,-2.44 34.053,-6.964 49.654,-10.053c15.6,-3.089 37.949,-7.574 49.654,-9.974c52.349,-10.741 96.967,-14.499 328.201,-27.621c46.546,-2.636 85.734,-5.902 87.092,-7.259c3.816,-3.816 49.26,-2.872 106.744,2.223"/></g></svg>